<svg xmlns="http://www.w3.org/2000/svg" viewBox="0 0 16.933 16.933" id="Diamond"><path d="M5.292 283.77s-.112.001-.188.078l-3.44 3.439a.264.264 0 0 0-.076.188c0 .068.024.135.076.187l6.616 6.615c.051.052.119.077.187.077a.263.263 0 0 0 .187-.077l6.614-6.615a.263.263 0 0 0 0-.375l-3.44-3.44a.263.263 0 0 0-.186-.076h-6.35zm.264.53h2.306l-2.305 2.498zm3.515 0h2.306v2.498zm-.604.126 2.57 2.784h-5.14Zm-3.44.248v2.536H2.491Zm6.88 0 2.536 2.536h-2.537zM2.49 287.74h2.634l2.432 5.065zm3.222 0h5.508l-2.754 5.738zm6.095 0h2.635l-5.066 5.065z" color="#000" font-family="sans-serif" font-weight="400" overflow="visible" style="line-height:normal;font-variant-ligatures:normal;font-variant-position:normal;font-variant-caps:normal;font-variant-numeric:normal;font-variant-alternates:normal;font-feature-settings:normal;text-indent:0;text-align:start;text-decoration-line:none;text-decoration-style:solid;text-decoration-color:#000;text-transform:none;text-orientation:mixed;shape-padding:0;isolation:auto;mix-blend-mode:normal" transform="translate(0 -280.067)" fill="#ffffff" class="color000000 svgShape"></path><path d="M2.117 14.023a.265.265 0 0 1-.265.264.265.265 0 0 1-.265-.264.265.265 0 0 1 .265-.265.265.265 0 0 1 .265.265z" fill="#ffffff" class="color000000 svgShape"></path><path d="M2.646 294.09c0 .264.264.264.264.264h2.646c.177 0 .265-.132.265-.264 0-.133-.088-.265-.265-.265H2.91s-.264 0-.264.265z" color="#000" font-family="sans-serif" font-weight="400" overflow="visible" style="line-height:normal;font-variant-ligatures:normal;font-variant-position:normal;font-variant-caps:normal;font-variant-numeric:normal;font-variant-alternates:normal;font-feature-settings:normal;text-indent:0;text-align:start;text-decoration-line:none;text-decoration-style:solid;text-decoration-color:#000;text-transform:none;text-orientation:mixed;shape-padding:0;isolation:auto;mix-blend-mode:normal" transform="translate(0 -280.067)" fill="#ffffff" class="color000000 svgShape"></path><path d="M5.292 15.08a.265.265 0 0 0 .264.266.265.265 0 0 0 .265-.265.265.265 0 0 0-.265-.265.265.265 0 0 0-.264.265z" fill="#ffffff" class="color000000 svgShape"></path><path style="line-height:normal;font-variant-ligatures:normal;font-variant-position:normal;font-variant-caps:normal;font-variant-numeric:normal;font-variant-alternates:normal;font-feature-settings:normal;text-indent:0;text-align:start;text-decoration-line:none;text-decoration-style:solid;text-decoration-color:#000;text-transform:none;text-orientation:mixed;shape-padding:0;isolation:auto;mix-blend-mode:normal" d="M4.763 295.148c0 .264-.265.264-.265.264H3.44c-.177 0-.265-.132-.265-.264s.088-.265.265-.265h1.058s.264 0 .264.265z" color="#000" font-family="sans-serif" font-weight="400" overflow="visible" transform="translate(0 -280.067)" fill="#ffffff" class="color000000 svgShape"></path><path d="M14.817 2.91a.265.265 0 0 1 .264-.265.265.265 0 0 1 .265.265.265.265 0 0 1-.265.265.265.265 0 0 1-.264-.265z" fill="#ffffff" class="color000000 svgShape"></path><path style="line-height:normal;font-variant-ligatures:normal;font-variant-position:normal;font-variant-caps:normal;font-variant-numeric:normal;font-variant-alternates:normal;font-feature-settings:normal;text-indent:0;text-align:start;text-decoration-line:none;text-decoration-style:solid;text-decoration-color:#000;text-transform:none;text-orientation:mixed;shape-padding:0;isolation:auto;mix-blend-mode:normal" d="M14.287 282.977c0-.265-.264-.265-.264-.265h-2.646c-.176 0-.265.133-.265.265s.089.265.265.265h2.646s.264 0 .264-.265z" color="#000" font-family="sans-serif" font-weight="400" overflow="visible" transform="translate(0 -280.067)" fill="#afb3b5" class="color000000 svgShape"></path><path d="M11.642 1.852a.265.265 0 0 0-.265-.265.265.265 0 0 0-.265.265.265.265 0 0 0 .265.264.265.265 0 0 0 .265-.264z" fill="#afb3b5" class="color000000 svgShape"></path><path d="M12.17 281.919c0-.265.265-.265.265-.265h1.059c.176 0 .264.132.264.265 0 .132-.088.264-.264.264h-1.059s-.264 0-.264-.264z" color="#000" font-family="sans-serif" font-weight="400" overflow="visible" style="line-height:normal;font-variant-ligatures:normal;font-variant-position:normal;font-variant-caps:normal;font-variant-numeric:normal;font-variant-alternates:normal;font-feature-settings:normal;text-indent:0;text-align:start;text-decoration-line:none;text-decoration-style:solid;text-decoration-color:#000;text-transform:none;text-orientation:mixed;shape-padding:0;isolation:auto;mix-blend-mode:normal" transform="translate(0 -280.067)" fill="#afb3b5" class="color000000 svgShape"></path><path d="M8.731 2.91a.265.265 0 0 1-.264.265.265.265 0 0 1-.265-.265.265.265 0 0 1 .265-.265.265.265 0 0 1 .264.265zm-.793-.794a.265.265 0 0 1-.265.265.265.265 0 0 1-.265-.265.265.265 0 0 1 .265-.264.265.265 0 0 1 .265.264zm1.587 0a.265.265 0 0 1-.265.265.265.265 0 0 1-.264-.265.265.265 0 0 1 .264-.264.265.265 0 0 1 .265.264zm-7.408 6.88a.265.265 0 0 1-.265.264.265.265 0 0 1-.265-.265.265.265 0 0 1 .265-.264.265.265 0 0 1 .265.264zm13.229 0a.265.265 0 0 1-.265.264.265.265 0 0 1-.264-.265.265.265 0 0 1 .264-.264.265.265 0 0 1 .265.264zM2.116 5.82a.265.265 0 0 1-.264.265.265.265 0 0 1-.265-.265.265.265 0 0 1 .265-.264.265.265 0 0 1 .265.264zm13.23 0a.265.265 0 0 1-.265.265.265.265 0 0 1-.264-.265.265.265 0 0 1 .264-.264.265.265 0 0 1 .265.264zM4.763 3.175a.265.265 0 0 1-.265.264.265.265 0 0 1-.265-.264.265.265 0 0 1 .265-.265.265.265 0 0 1 .265.265zm0 8.466a.265.265 0 0 1-.265.265.265.265 0 0 1-.265-.265.265.265 0 0 1 .265-.264.265.265 0 0 1 .265.264zm7.937 0a.265.265 0 0 1-.265.265.265.265 0 0 1-.264-.265.265.265 0 0 1 .264-.264.265.265 0 0 1 .265.264zm-3.969 3.44a.265.265 0 0 1-.264.265.265.265 0 0 1-.265-.265.265.265 0 0 1 .265-.265.265.265 0 0 1 .264.265z" fill="#ffffff" class="color000000 svgShape"></path></svg>